HIERARCHY
ROOT Hips
{
	OFFSET 0.00000 0.00000 0.00000
	CHANNELS 6 Xposition Yposition Zposition Yrotation Zrotation Xrotation 
	JOINT Lumbar
	{
		OFFSET 0 0 0
		CHANNELS 3 Zrotation Xrotation Yrotation
		JOINT Neck
		{
			OFFSET 0.00 0.2701 0.00
			CHANNELS 3 Zrotation Xrotation Yrotation
			End Site
			{
				OFFSET 0.00 0.1379 0.00
			}
		}
		JOINT RightShoulder
		{
			OFFSET 0.0119 0.2289 0.1181
			CHANNELS 3 Zrotation Xrotation Yrotation
			JOINT RightElbow
			{
				OFFSET 0.00 -0.1475 0.00
				CHANNELS 2 Zrotation Yrotation
				JOINT RightWrist
				{
					OFFSET 0.00 -0.1605 0.00
					CHANNELS 2 Zrotation Xrotation
					End Site
					{
						OFFSET 0.0040 -0.1068 0.0006
					}
				}
			}
		}
		JOINT LeftShoulder
		{
			OFFSET 0.0119 0.2289 -0.1181
			CHANNELS 3 Zrotation Xrotation Yrotation
			JOINT LeftElbow
			{
				OFFSET 0.00 -0.1475 0.00
				CHANNELS 2 Zrotation Yrotation
				JOINT LeftWrist
				{
					OFFSET 0.00 -0.1605 0.00
					CHANNELS 2 Zrotation Xrotation
					End Site
					{
						OFFSET 0.0040 -0.1068 -0.0006
					}
				}
			}
		}
	}
	JOINT RightHip
	{
		OFFSET 0.0316 -0.0424 0.0458
		CHANNELS 3 Zrotation Xrotation Yrotation
		JOINT RightKnee
		{
			OFFSET 0.00 -0.2438 0.00
			CHANNELS 1 Zrotation
			JOINT RightAnkle
			{
				OFFSET 0.00 -0.2449 0.00
				CHANNELS 3 Zrotation Xrotation Yrotation
				End Site
				{
					OFFSET 0.1237 -0.0542 0.0051
				}
			}
		}
	}
	JOINT LeftHip
	{
		OFFSET 0.0316 -0.0424 -0.0458
		CHANNELS 3 Zrotation Xrotation Yrotation
		JOINT LeftKnee
		{
			OFFSET 0.00 -0.2438 0.00
			CHANNELS 1 Zrotation
			JOINT LeftAnkle
			{
				OFFSET 0.00 -0.2449 0.00
				CHANNELS 3 Zrotation Xrotation Yrotation
				End Site
				{
					OFFSET 0.1237 -0.0542 -0.0051
				}
			}
		}
	}
}
MOTION
Frames: 22
Frame Time: 0.02
-0.34288 -0.09737 0.57205 808.28853 -18.58765 -15.55054 35.65264 3.53744 12.39343 -12.93126 9.24679 -0.83079 7.47489 4.56426 50.10656 93.50415 88.93379 -10.43329 -6.87791 -38.06507 21.15053 18.56784 60.10603 -79.89198 -4.82227 0.56749 28.83307 -1.81073 -15.97389 -31.15534 -7.68455 -5.07504 -3.39853 47.93091 5.45824 -14.35593 -76.2351 -11.73437 2.3116 2.03346
-0.34092 -0.0956 0.56746 808.95261 -18.79855 -14.93181 35.55843 3.78816 13.59895 -13.32298 8.74081 -0.83079 7.68641 4.42331 50.47141 93.50284 89.17968 -10.63749 -6.89934 -40.06245 23.32117 25.24954 56.85131 -79.12548 -5.26528 0.38006 28.54216 -2.09876 -15.67144 -31.40115 -7.80593 -5.12358 -3.43447 49.08753 4.48935 -11.29149 -75.0483 -11.55867 2.38008 2.06289
-0.33974 -0.09342 0.56282 809.33333 -19.08538 -14.25796 35.58858 4.05927 14.75626 -13.76227 8.12839 -0.83079 7.96623 4.10518 50.87106 93.65791 89.071 -10.75029 -6.82675 -42.37327 25.80639 32.84281 53.52466 -78.18818 -5.74962 0.18465 28.40285 -2.44822 -15.09658 -31.50658 -7.96602 -5.15981 -3.4666 50.07472 3.65313 -7.75413 -72.70909 -11.45583 2.34714 2.03584
-0.33821 -0.09145 0.5582 809.83775 -19.3409 -13.62069 35.56073 4.32091 15.92015 -14.17638 7.57184 -0.83079 8.21418 3.8775 51.24117 93.73127 89.15305 -10.94605 -6.79573 -44.57322 28.23981 40.01722 50.17085 -77.21527 -6.3118 -0.00616 28.19694 -2.76259 -14.65722 -31.67414 -8.10488 -5.19894 -3.4986 51.11235 2.75558 -4.46228 -70.82492 -11.31573 2.36701 2.0383
-0.33668 -0.08936 0.5536 810.35261 -19.58233 -12.92519 35.53839 4.58449 17.15798 -14.60868 6.98039 -0.83079 8.46998 3.60636 51.67618 93.84782 89.12605 -10.97565 -6.76657 -46.74215 30.2888 47.35004 47.04853 -76.67472 -6.4985 -0.19981 27.98409 -3.11419 -14.16294 -31.83755 -8.2608 -5.24697 -3.5372 52.26704 1.8509 -1.00421 -69.22983 -11.18149 2.36029 2.02519
-0.33534 -0.08745 0.54894 810.78278 -19.87129 -12.34208 35.53491 4.84793 18.22568 -15.0118 6.43723 -0.83079 8.7231 3.38564 51.981 93.91252 89.23351 -11.31899 -6.71351 -48.92949 33.22297 54.41025 43.45291 -75.24852 -7.43372 -0.39182 27.8204 -3.3996 -13.72078 -31.98102 -8.38978 -5.27471 -3.56177 53.13205 0.99526 2.19688 -66.75472 -11.05876 2.38495 2.03132
-0.33434 -0.08606 0.54416 811.04639 -20.27363 -12.07624 35.54717 5.1121 18.84827 -15.33971 6.05792 -0.83079 8.96343 3.32968 51.9261 93.79258 89.82793 -12.64133 -6.60228 -52.13993 38.38897 61.85689 38.34922 -70.93932 -10.81607 -0.55126 27.75801 -3.49455 -13.48542 -32.09798 -8.43431 -5.24674 -3.54682 53.28564 0.26541 4.6784 -62.19365 -10.92891 2.52018 2.10303
-0.33353 -0.08488 0.5393 811.23631 -20.72105 -11.92769 35.57546 5.37391 19.29726 -15.63311 5.73048 -0.83079 9.19648 3.33331 51.73727 93.61615 90.56241 -14.26568 -6.47261 -55.19275 44.44889 68.78145 32.81353 -65.82695 -14.88372 -0.71158 27.73871 -3.51884 -13.31324 -32.20226 -8.45026 -5.19958 -3.51836 53.14574 -0.42116 6.85934 -56.78101 -10.81514 2.69625 2.19927
-0.33264 -0.08365 0.53445 811.46307 -21.14754 -11.73136 35.60008 5.63315 19.81676 -15.93109 5.37698 -0.83079 9.42451 3.32214 51.60253 93.46752 91.21219 -15.6925 -6.36253 -57.58824 50.19899 74.9976 27.61801 -61.40642 -18.3746 -0.89096 27.69795 -3.56935 -13.11549 -32.31779 -8.47946 -5.1633 -3.49741 53.10787 -1.14168 9.10732 -51.71195 -10.70698 2.84626 2.28104
-0.33173 -0.08225 0.5297 811.66632 -21.57886 -11.5106 35.61295 5.90978 20.37215 -16.27809 5.03057 -0.83079 9.68866 3.2554 51.49478 93.31418 91.93956 -17.37057 -6.20477 -62.94187 55.59289 85.07159 21.80897 -55.63101 -22.96287 -0.99646 27.67168 -3.64562 -12.89532 -32.40538 -8.509 -5.11753 -3.47055 53.192 -1.80103 11.67444 -46.7652 -10.53956 2.99992 2.36207
-0.3309 -0.08125 0.52472 811.90388 -22.00944 -11.36808 35.65349 6.14774 20.80962 -16.5136 4.68266 -0.83079 9.87681 3.31775 51.30221 93.15666 92.54205 -18.5983 -6.13944 -62.25628 61.88705 87.18352 17.18078 -52.45029 -25.45799 -1.24593 27.62197 -3.65235 -12.73984 -32.54961 -8.53047 -5.08705 -3.4528 52.96011 -2.57476 13.48856 -41.40247 -10.50737 3.18775 2.46726
-0.3302 -0.08131 0.51927 812.26282 -22.42981 -11.4245 35.75764 6.29347 20.98549 -16.45392 4.32241 -0.83079 9.84037 3.74933 50.87629 92.98811 92.77337 -18.508 -6.3668 -43.50954 70.87403 65.61209 15.88336 -56.96912 -21.74151 -1.97995 27.50875 -3.46944 -12.75371 -32.85784 -8.5371 -5.10437 -3.46412 51.8793 -3.71274 13.39434 -34.88445 -10.76057 3.17793 2.48571
-0.32958 -0.08178 0.51358 812.65818 -22.84685 -11.55376 35.89028 6.39783 21.04503 -16.28213 3.95865 -0.83079 9.73043 4.3043 50.37551 92.81898 92.87256 -17.95463 -6.68242 -18.94472 80.65539 36.36709 15.79772 -64.06629 -15.94238 -2.84351 27.36733 -3.22175 -12.83038 -33.22333 -8.53646 -5.13759 -3.48496 50.50009 -4.96076 12.53949 -28.02471 -11.15893 3.24082 2.54838
-0.32896 -0.08208 0.50792 813.03334 -23.26331 -11.64239 36.01485 6.51167 21.14369 -16.15871 3.59396 -0.83079 9.6646 4.78601 49.92953 92.6581 93.03116 -17.61413 -6.93611 2.01198 89.79196 11.84631 15.17917 -69.76003 -11.27171 -3.58923 27.23055 -3.01275 -12.87605 -33.56047 -8.53848 -5.16312 -3.50112 49.29026 -6.13435 11.95704 -21.46624 -11.55292 3.47293 2.69672
-0.32817 -0.08231 0.50257 813.42322 -23.6907 -11.76685 36.11876 6.6641 21.29361 -16.04524 3.24129 -0.83079 9.55336 5.3432 49.39061 92.46175 93.20479 -17.2739 -7.28 27.00326 100.15674 -17.85321 14.46435 -76.39701 -5.86322 -4.57978 27.13057 -2.76098 -12.93553 -33.90717 -8.54163 -5.19021 -3.51844 47.92878 -7.4099 11.64314 -14.25458 -11.71102 2.90764 2.4283
-0.32776 -0.08279 0.49652 813.78949 -24.09331 -11.83245 36.27311 6.72723 21.31228 -15.88456 2.86256 -0.83079 9.51934 5.77055 49.02994 92.33969 93.30432 -16.81916 -7.45875 45.02194 108.14187 -38.65824 14.25101 -81.70064 -1.47978 -5.09634 26.94581 -2.58544 -12.97863 -34.2474 -8.54184 -5.21776 -3.53563 46.81455 -8.49923 10.63153 -8.3416 -12.36514 3.95078 3.00181
-0.32823 -0.08388 0.48873 814.10481 -24.43263 -11.71737 36.55198 6.54613 20.99025 -15.6236 2.4092 -0.83079 9.71604 5.81938 49.17416 92.42439 93.31676 -16.16113 -7.14709 41.92172 109.33742 -32.36314 15.06628 -82.62247 -0.50444 -4.2279 26.54126 -2.62288 -12.97431 -34.56043 -8.53031 -5.24532 -3.55136 46.47078 -9.05212 7.54476 -6.03753 -14.61298 10.02222 6.2065
-0.3291 -0.0852 0.48022 814.39133 -24.74566 -11.54 36.88175 6.27796 20.54241 -15.3188 1.93061 -0.83079 9.99289 5.73123 49.50178 92.58373 93.24474 -15.40294 -6.6687 31.687 108.1083 -16.97356 16.35886 -82.13046 -0.61697 -2.88657 26.05119 -2.74218 -12.94726 -34.8652 -8.518 -5.27229 -3.56645 46.38446 -9.41296 3.84217 -5.06887 -17.31085 17.60437 10.20153
-0.32985 -0.08641 0.47198 814.67607 -25.06815 -11.3908 37.19353 6.05485 20.15727 -15.03229 1.46502 -0.83079 10.23364 5.69866 49.75016 92.70836 93.15209 -14.68864 -6.27514 25.00529 108.00355 -6.17843 17.47281 -82.33511 -0.18271 -1.79046 25.59459 -2.83306 -12.9234 -35.16951 -8.50874 -5.29809 -3.58113 46.17261 -9.85912 0.64736 -3.53202 -19.62681 24.08851 13.62165
-0.33032 -0.08768 0.464 815.02421 -25.40269 -11.24484 37.48562 5.80743 19.74404 -14.74815 0.99089 -0.83079 10.47127 5.69809 49.97973 92.83681 93.29524 -13.963 -5.84639 17.20792 107.842 6.299 18.46253 -82.40054 0.10475 -0.56958 25.15794 -2.8843 -12.93738 -35.48948 -8.48462 -5.33099 -3.59917 45.98783 -10.31816 -3.52053 -1.81571 -22.67867 32.2811 17.9381
-0.33148 -0.08887 0.45529 815.23376 -25.70386 -11.0763 37.82918 5.59009 19.36172 -14.45087 0.53107 -0.83079 10.73438 5.59737 50.29151 92.97435 92.93996 -13.24602 -5.45023 9.97307 107.2003 17.52922 19.81439 -82.38688 0.40983 0.50374 24.66214 -3.0387 -12.85947 -35.7793 -8.49541 -5.34813 -3.60982 45.80965 -10.70233 -5.81786 -0.7994 -24.32542 37.31222 20.59484
-0.33439 -0.08985 0.44473 815.06147 -25.93641 -10.86112 38.31212 5.48092 19.08988 -14.12242 0.0962 -0.83079 11.05804 5.24703 50.79896 93.12518 91.13345 -12.55512 -5.1842 5.92967 105.92753 23.15424 21.99172 -82.48656 1.04332 1.06877 24.00536 -3.45726 -12.59581 -35.94579 -8.56785 -5.32694 -3.60122 45.60511 -10.9348 -2.62343 -1.35348 -21.78118 32.90279 18.30014
